<svg width="382" height="440" viewBox="0 0 382 440" fill="none" xmlns="http://www.w3.org/2000/svg">
<mask id="mask0_34_687" style="mask-type:alpha" maskUnits="userSpaceOnUse" x="0" y="0" width="382" height="440">
<path d="M190.526 0L381.051 110V330L190.526 440L0 330V110L190.526 0Z" fill="#D9D9D9"/>
</mask>
<g mask="url(#mask0_34_687)">
<path d="M190.526 0L381.051 110V330L190.526 440L0 330V110L190.526 0Z" fill="#194649"/>
<path d="M190.526 0L381.051 110V330L190.526 440L0 330V110L190.526 0Z" fill="#194649"/>
<path d="M71 99L75.3215 110.679L87 115L75.3215 119.321L71 131L66.6785 119.321L55 115L66.6785 110.679L71 99Z" fill="white"/>
<path d="M110 83L113.511 92.4888L123 96L113.511 99.5112L110 109L106.489 99.5112L97 96L106.489 92.4888L110 83Z" fill="white"/>
<path d="M343 169L347.321 180.679L359 185L347.321 189.321L343 201L338.679 189.321L327 185L338.679 180.679L343 169Z" fill="white"/>
<path fill-rule="evenodd" clip-rule="evenodd" d="M381.051 331.294V335L190.526 445L0 335V325.09C14.8033 243.957 94.2454 182 190.026 182C288.233 182 369.263 247.136 381.051 331.294Z" fill="#F2F2F2"/>
<path d="M351.82 342.01C357.225 356.34 346.548 373.637 327.971 380.644C309.395 387.651 289.954 381.714 284.549 367.383C279.143 353.053 289.821 335.756 308.397 328.749C326.974 321.742 346.415 327.679 351.82 342.01Z" fill="#DBDBDB"/>
<path d="M307.394 418.64L193.525 352.82L307.394 287L421.92 352.82L307.394 418.64Z" fill="#194649" fill-opacity="0.4"/>
<path d="M229.646 407.625C234.039 418.858 219.915 434.88 198.099 443.411C176.284 451.943 155.038 449.752 150.645 438.52C146.252 427.287 160.376 411.265 182.192 402.734C204.007 394.202 225.253 396.392 229.646 407.625Z" fill="#DBDBDB"/>
<path d="M62.0046 320.754C67.9944 336.635 61.7391 353.699 48.0331 358.869C34.3271 364.038 18.3606 355.355 12.3708 339.475C6.38105 323.594 12.6363 306.53 26.3423 301.36C40.0483 296.191 56.0148 304.874 62.0046 320.754Z" fill="#DBDBDB"/>
<path d="M193.409 220.962L79.541 155.143V220.962L193.409 287.441L307.936 220.962V155.143L193.409 220.962Z" fill="#88CDD2"/>
<path d="M193.409 220.962L79.541 155.142L193.409 89.3223L307.936 155.142L193.409 220.962Z" fill="#9BDBDF"/>
<path d="M145.705 147.284C143.791 146.18 143.791 144.389 145.704 143.284L172.971 127.529C174.884 126.424 177.986 126.423 179.9 127.527L241.385 162.999C243.298 164.103 243.299 165.894 241.386 166.999L214.118 182.754C212.206 183.859 209.104 183.86 207.19 182.756L145.705 147.284Z" fill="#62B3BA"/>
<path fill-rule="evenodd" clip-rule="evenodd" d="M79.541 220.961L193.409 286.781L307.936 220.962V286.781L193.409 353.259L130.83 316.725C130.831 316.623 130.832 316.52 130.832 316.417C130.832 301.876 120.626 284.192 108.035 276.918C95.4453 269.643 85.239 275.534 85.239 290.074C85.239 290.086 85.239 290.097 85.239 290.108L79.541 286.781V220.961Z" fill="#62B3BA"/>
<path d="M90.9385 178.892C90.9385 176.682 92.4891 175.788 94.4019 176.893L121.67 192.647C123.583 193.753 125.133 196.439 125.133 198.649V230.14C125.133 232.35 123.583 233.245 121.67 232.139L94.4019 216.385C92.4891 215.279 90.9385 212.593 90.9385 210.384V178.892Z" fill="#30868D"/>
<path d="M147.931 211.819C147.931 209.61 149.481 208.715 151.394 209.82L178.662 225.575C180.575 226.68 182.125 229.367 182.125 231.576V328.888C182.125 331.097 180.575 331.992 178.662 330.887L151.394 315.132C149.481 314.027 147.931 311.34 147.931 309.131V211.819Z" fill="#30868D"/>
<path d="M157.211 267.414C157.211 268.908 156.162 269.513 154.868 268.766C153.574 268.018 152.525 266.201 152.525 264.706C152.525 263.212 153.574 262.606 154.868 263.354C156.162 264.101 157.211 265.919 157.211 267.414Z" fill="#194649"/>
<path d="M125.133 313.124C125.133 324.029 117.478 328.447 108.036 322.991C98.5932 317.536 90.9385 304.272 90.9385 293.367C90.9385 282.462 98.5932 278.044 108.036 283.5C117.478 288.955 125.133 302.219 125.133 313.124Z" fill="#194649"/>
<path d="M112.235 306.216C112.235 309.312 110.062 310.566 107.381 309.017C104.7 307.468 102.526 303.703 102.526 300.606C102.526 297.51 104.7 296.256 107.381 297.805C110.062 299.354 112.235 303.12 112.235 306.216Z" fill="#F2F2F2"/>
<path d="M193.409 286.782V353.26L307.936 286.782V220.962L193.409 286.782Z" fill="#4E9EA5"/>
<path d="M193.409 220.961V286.781L307.936 220.961V155.142L193.409 220.961Z" fill="#5BB4BE"/>
<path d="M216.864 224.99C216.864 222.781 218.415 220.094 220.328 218.989L281.79 183.478C283.703 182.372 285.254 183.267 285.254 185.476V216.968C285.254 219.177 283.703 221.864 281.79 222.969L220.328 258.481C218.415 259.586 216.864 258.691 216.864 256.482V224.99Z" fill="#328B93"/>
<path d="M256.758 295.938C256.758 299.978 253.922 304.891 250.424 306.912C246.926 308.933 244.091 307.297 244.091 303.257C244.091 299.217 246.926 294.304 250.424 292.283C253.922 290.262 256.758 291.899 256.758 295.938Z" fill="#194649"/>
<path d="M253.305 308.232L247.427 304.964C245.224 303.74 246.736 298.541 249.822 296.726L251.222 295.903C252.135 295.366 253.014 295.265 253.668 295.622L263.655 301.074C264.325 301.44 264.703 302.255 264.703 303.335V334.147C264.703 335.251 263.928 336.595 262.972 337.147L256.769 340.731C254.856 341.836 253.305 340.941 253.305 338.732V308.232Z" fill="#194649"/>
<path d="M80.0528 212.742L29.5176 183.781L80.0528 154.82L130.222 184.439L80.0528 212.742Z" fill="#4E9EA5"/>
<path d="M142.165 377L103.525 355L142.165 333L180.525 355.5L142.165 377Z" fill="#62B3BA"/>
</g>
<path d="M170.84 143.185L166.768 143.406L162.836 145.674L159.757 143.895L173.902 135.734L176.981 137.513L170.253 141.395L170.375 141.465L175.116 141.045L182.289 140.58L185.773 142.593L175.197 143.198L172.053 150.999L168.427 148.904L170.84 143.185ZM190.925 145.569L182.251 150.573C181.251 151.15 180.697 151.696 180.589 152.21C180.494 152.717 180.906 153.236 181.825 153.767C182.743 154.297 183.641 154.535 184.519 154.481C185.411 154.419 186.356 154.1 187.356 153.523L196.03 148.519L199.028 150.251L190.679 155.068C189.638 155.668 188.632 156.132 187.659 156.459C186.714 156.786 185.768 156.965 184.822 156.996C183.89 157.019 182.952 156.898 182.006 156.633C181.074 156.359 180.102 155.93 179.089 155.345C178.076 154.76 177.333 154.198 176.861 153.66C176.401 153.114 176.192 152.572 176.233 152.034C176.287 151.488 176.591 150.938 177.145 150.384C177.726 149.831 178.537 149.254 179.577 148.654L187.927 143.837L190.925 145.569ZM202.074 152.011L208.941 155.979C210.116 156.657 210.697 157.375 210.683 158.132C210.683 158.896 210.135 159.594 209.041 160.225C208.501 160.537 207.967 160.759 207.44 160.891C206.927 161.031 206.427 161.102 205.941 161.101C205.468 161.109 205.009 161.054 204.563 160.937C204.144 160.82 203.746 160.66 203.368 160.457L203.246 160.527C203.584 160.722 203.874 160.96 204.117 161.241C204.374 161.53 204.522 161.842 204.563 162.177C204.616 162.505 204.535 162.848 204.319 163.207C204.116 163.573 203.711 163.932 203.103 164.282C202.549 164.602 201.928 164.851 201.239 165.03C200.577 165.21 199.901 165.311 199.212 165.334C198.524 165.357 197.848 165.302 197.186 165.17C196.538 165.029 195.95 164.806 195.424 164.502L187.928 160.171L202.074 152.011ZM193.601 160.454L197.147 162.502C197.552 162.736 197.977 162.857 198.423 162.865C198.896 162.873 199.335 162.76 199.74 162.527L200.429 162.129C200.834 161.895 201.024 161.646 200.997 161.381C200.997 161.115 200.794 160.866 200.389 160.632L196.844 158.583L193.601 160.454ZM199.357 157.134L202.416 158.901C202.821 159.135 203.253 159.252 203.712 159.252C204.172 159.252 204.604 159.136 205.009 158.902L205.617 158.551C206.023 158.317 206.225 158.068 206.225 157.803C206.226 157.537 206.023 157.288 205.618 157.054L202.559 155.286L199.357 157.134ZM206.869 171.396C205.937 170.858 205.242 170.276 204.783 169.652C204.324 169.028 204.128 168.385 204.196 167.722C204.277 167.051 204.622 166.369 205.23 165.675C205.852 164.973 206.764 164.276 207.966 163.582C209.168 162.888 210.371 162.366 211.573 162.016C212.789 161.657 213.971 161.459 215.119 161.42C216.281 161.374 217.402 161.483 218.482 161.749C219.563 162.014 220.569 162.416 221.501 162.955C222.433 163.493 223.128 164.074 223.587 164.698C224.047 165.322 224.235 165.97 224.154 166.64C224.086 167.303 223.742 167.986 223.12 168.687C222.512 169.381 221.607 170.075 220.404 170.769C219.202 171.462 217.993 171.988 216.777 172.347C215.575 172.697 214.393 172.896 213.231 172.942C212.083 172.981 210.968 172.867 209.888 172.602C208.807 172.336 207.801 171.934 206.869 171.396ZM209.605 169.818C210.537 170.356 211.564 170.598 212.685 170.544C213.819 170.497 214.954 170.147 216.089 169.492L218.197 168.276C219.332 167.621 219.94 166.967 220.021 166.311C220.116 165.664 219.697 165.071 218.765 164.533C217.833 163.995 216.8 163.749 215.665 163.795C214.544 163.849 213.416 164.204 212.281 164.858L210.174 166.074C209.039 166.729 208.424 167.38 208.329 168.027C208.248 168.682 208.673 169.279 209.605 169.818Z" fill="#F2F2F2"/>
</svg>
